<?xml version="1.0" encoding="utf-8"?>
<!-- Generator: Adobe Illustrator 17.1.0, SVG Export Plug-In . SVG Version: 6.00 Build 0)  -->
<!DOCTYPE svg PUBLIC "-//W3C//DTD SVG 1.1//EN" "http://www.w3.org/Graphics/SVG/1.1/DTD/svg11.dtd">
<svg version="1.1" id="Layer_1" xmlns="http://www.w3.org/2000/svg" xmlns:xlink="http://www.w3.org/1999/xlink" x="0px" y="0px"
	 viewBox="0 0 11 11" enable-background="new 0 0 11 11" >
<path fill="#999999" d="M11,6.1V4.848L10.823,4.79l-1.34-0.438L9.126,3.489l0.687-1.454L8.928,1.15L8.762,1.234L7.505,1.872
	L6.642,1.515L6.099,0H4.848L4.79,0.177l-0.438,1.34L3.49,1.875L2.035,1.188L1.15,2.073l0.084,0.166l0.638,1.257L1.515,4.358L0,4.901
	v1.252L0.177,6.21l1.34,0.438l0.357,0.863L1.188,8.965l0.885,0.885l0.166-0.085l1.257-0.638l0.863,0.358L4.901,11h1.252l0.058-0.177
	l0.437-1.34l0.863-0.358l1.455,0.688l0.885-0.885L9.766,8.762L9.128,7.506l0.358-0.863L11,6.1z M5.5,7.253
	c-0.968,0-1.753-0.785-1.753-1.753S4.532,3.747,5.5,3.747c0.968,0,1.753,0.785,1.753,1.753S6.468,7.253,5.5,7.253z"/>
</svg>
