<svg version="1.1" class="radio_tower radio_tower--active"
 xmlns="http://www.w3.org/2000/svg" xmlns:xlink="http://www.w3.org/1999/xlink" xmlns:a="http://ns.adobe.com/AdobeSVGViewerExtensions/3.0/"
 x="0px" y="0px" width="17px" height="16.552px" viewBox="0 0 17 16.552" enable-background="new 0 0 17 16.552"
 xml:space="preserve">
  <g class="radio_tower__inner_waves">
    <path fill="#FFFFFF" d="M4.272,6.369c0.18,0,0.36-0.069,0.497-0.206c0.275-0.274,0.275-0.72,0-0.994h0
      C4.413,4.813,4.238,4.353,4.238,3.886c0.001-0.466,0.175-0.926,0.531-1.283c0.275-0.274,0.275-0.719,0-0.994
      C4.495,1.334,4.05,1.334,3.775,1.608C3.148,2.236,2.831,3.064,2.832,3.886C2.831,4.707,3.148,5.536,3.775,6.163
      C3.912,6.3,4.092,6.369,4.272,6.369z"/>
    <path fill="#FFFFFF" d="M12.231,1.609c-0.275,0.274-0.275,0.719,0,0.994c0.356,0.356,0.531,0.817,0.531,1.283
      c-0.001,0.466-0.175,0.927-0.531,1.283c-0.275,0.275-0.275,0.72,0,0.994c0.137,0.137,0.318,0.206,0.497,0.206
      c0.18,0,0.36-0.069,0.497-0.206c0.627-0.627,0.944-1.455,0.943-2.277c0.001-0.822-0.316-1.651-0.943-2.278
      C12.95,1.334,12.505,1.334,12.231,1.609z"/>
  </g>
  <g class="radio_tower__outer_waves">
    <path fill="#FFFFFF" d="M2.519,6.572C1.776,5.828,1.407,4.86,1.406,3.886C1.407,2.911,1.776,1.944,2.519,1.2
      c0.274-0.274,0.274-0.719,0-0.994c-0.275-0.274-0.72-0.274-0.994,0C0.51,1.22-0.001,2.556,0,3.886
      c-0.001,1.329,0.51,2.666,1.524,3.681c0.138,0.137,0.317,0.206,0.497,0.206c0.18,0,0.36-0.069,0.497-0.206
      C2.793,7.291,2.793,6.846,2.519,6.572L2.519,6.572z"/>
    <path fill="#FFFFFF" d="M15.476,0.206c-0.274-0.275-0.72-0.275-0.994,0c-0.274,0.274-0.274,0.719,0,0.994
      c0.743,0.744,1.112,1.711,1.113,2.686c-0.001,0.974-0.37,1.942-1.113,2.686c-0.274,0.274-0.274,0.72,0,0.994
      c0.137,0.137,0.318,0.206,0.497,0.206c0.18,0,0.36-0.069,0.497-0.206c1.014-1.015,1.525-2.35,1.524-3.68
      C17.001,2.557,16.491,1.221,15.476,0.206z"/>
  </g>
  <path fill="#FFFFFF" d="M8.505,7.003H8.503C8.002,7.004,7.498,6.884,7.041,6.645l-3.817,9.907h1.808l0.307-0.797l3.134-1.264
  l3.17,1.255l0.311,0.806h1.808L9.944,6.646C9.495,6.882,9,7.003,8.505,7.003z M8.492,7.57l0.549,1.424H7.944L8.492,7.57z
   M7.582,9.932h1.82l0.241,0.625l-1.12,0.647l-1.159-0.704L7.582,9.932z M7.022,11.387l0.576,0.35l-0.914,0.527L7.022,11.387z
   M11.184,14.556l-2.54-1.006l-0.348,0.001L5.8,14.558l0.347-0.901l2.364-1.365l2.353,1.43L11.184,14.556z M10.311,12.29
  l-0.875-0.532l0.549-0.317L10.311,12.29z M8.492,5.975c1.154,0,2.089-0.935,2.089-2.089c0-1.154-0.935-2.089-2.089-2.089
  c-1.154,0-2.089,0.935-2.089,2.089C6.403,5.04,7.339,5.975,8.492,5.975z"/>
</svg>
