<svg version="1.1"
	 xmlns="http://www.w3.org/2000/svg" xmlns:xlink="http://www.w3.org/1999/xlink" xmlns:a="http://ns.adobe.com/AdobeSVGViewerExtensions/3.0/"
	 x="0px" y="0px" width="15px" height="12.19px" viewBox="0 0 15 12.19" enable-background="new 0 0 15 12.19" xml:space="preserve"
	>
<path fill="#5FA9DD" d="M15,1.443c-0.552,0.245-1.145,0.41-1.768,0.485c0.635-0.381,1.123-0.984,1.353-1.703
	c-0.595,0.353-1.253,0.609-1.954,0.747C12.07,0.374,11.27,0,10.385,0c-1.7,0-3.078,1.378-3.078,3.077
	c0,0.241,0.027,0.476,0.08,0.701C4.83,3.65,2.562,2.425,1.044,0.563C0.779,1.018,0.628,1.546,0.628,2.11
	c0,1.068,0.543,2.01,1.369,2.561C1.492,4.656,1.018,4.518,0.603,4.287c0,0.013,0,0.026,0,0.039c0,1.491,1.061,2.735,2.469,3.018
	c-0.258,0.07-0.53,0.108-0.811,0.108c-0.198,0-0.391-0.019-0.579-0.055c0.392,1.223,1.528,2.112,2.875,2.137
	c-1.053,0.825-2.38,1.317-3.822,1.317c-0.248,0-0.493-0.015-0.734-0.043c1.362,0.873,2.98,1.383,4.717,1.383
	c5.661,0,8.756-4.689,8.756-8.756c0-0.133-0.003-0.266-0.009-0.398C14.066,2.602,14.587,2.06,15,1.443z"/>
</svg>
