<svg version="1.1"
	 x="0px" y="0px" width="15px" height="15.314px" viewBox="0 0 15 15.314" enable-background="new 0 0 15 15.314"
	 >
<path d="M7.392,0c0.002,0,0.003,0,0.005,0C7.399,0,7.4,0,7.402,0H7.392z M15,7.656C14.999,3.451,11.608,0.031,7.397,0
	C7.374,0,7.355,0,7.342,0C5.175,0,3.209,0.906,1.817,2.357L0,0.516v5.349h5.281L3.447,4.008c0.977-1.042,2.357-1.689,3.895-1.69
	c0.014,0,0.022,0,0.026,0h0.01c2.936,0.018,5.305,2.406,5.305,5.338c0,0.003-0.001,0.018,0,0.042
	c-0.022,2.933-2.409,5.298-5.338,5.297c-0.01,0-0.025,0-0.046,0l0.007,2.319c0.007,0,0.02,0,0.039,0
	c4.206-0.001,7.628-3.396,7.656-7.609V7.693V7.678C15,7.674,15,7.667,15,7.656z"/>
</svg>
