<svg version="1.1"
	 x="0px" y="0px" width="15px" height="14.317px" viewBox="0 0 15 14.317" enable-background="new 0 0 15 14.317"
	 >
<path d="M14.986,5.434c-0.039-0.119-0.151-0.201-0.277-0.201H9.415L7.777,0.201C7.738,0.081,7.626,0,7.5,0
	C7.374,0,7.262,0.081,7.223,0.2L5.575,5.233H0.291c-0.126,0-0.238,0.081-0.277,0.201c-0.039,0.12,0.004,0.252,0.105,0.325
	l4.277,3.115l-1.648,5.061c-0.039,0.12,0.004,0.252,0.106,0.326c0.102,0.074,0.241,0.074,0.343,0L7.5,11.137l4.295,3.125
	c0.051,0.037,0.111,0.056,0.171,0.056c0.06,0,0.12-0.019,0.171-0.056c0.102-0.075,0.145-0.206,0.106-0.326l-1.648-5.061L14.88,5.76
	C14.982,5.686,15.025,5.554,14.986,5.434z"/>
</svg>
