<svg version="1.1" class="sun"
	 x="0px" y="0px" width="16px" height="16.001px" viewBox="0 0 16 16.001" enable-background="new 0 0 16 16.001"
	 >

<circle class="sun__core" fill="#FABB3F" cx="8" cy="8" r="2.551"/>
<path class="sun__beam" fill="#FABB3F" d="M8,11.918c-0.358,0-0.648,0.29-0.648,0.648v2.786c0,0.359,0.29,0.649,0.648,0.649s0.648-0.29,0.648-0.649
	v-2.786C8.648,12.209,8.358,11.918,8,11.918z"/>
<path class="sun__beam" fill="#FABB3F" d="M8,4.082c0.358,0,0.648-0.29,0.648-0.648V0.648C8.648,0.29,8.358,0,8,0C7.642,0,7.352,0.29,7.352,0.648
	v2.787C7.352,3.792,7.642,4.082,8,4.082z"/>
<path class="sun__beam" fill="#FABB3F" d="M4.313,10.771l-1.97,1.969c-0.253,0.253-0.253,0.664,0,0.917c0.126,0.126,0.292,0.189,0.458,0.189
	c0.166,0,0.332-0.064,0.458-0.189l1.97-1.97c0.253-0.253,0.253-0.663,0-0.916C4.976,10.518,4.566,10.518,4.313,10.771z"/>
<path class="sun__beam" fill="#FABB3F" d="M11.229,5.419c0.166,0,0.332-0.064,0.458-0.189l1.97-1.97c0.254-0.253,0.254-0.663,0-0.916
	c-0.253-0.253-0.663-0.253-0.916,0l-1.97,1.969c-0.253,0.253-0.253,0.664,0,0.917C10.897,5.356,11.063,5.419,11.229,5.419z"/>
<path class="sun__beam" fill="#FABB3F" d="M15.352,7.352h-2.786c-0.358,0-0.648,0.29-0.648,0.649c0,0.357,0.29,0.648,0.648,0.648h2.786
	C15.71,8.648,16,8.358,16,8C16,7.642,15.71,7.352,15.352,7.352z"/>
<path class="sun__beam" fill="#FABB3F" d="M4.082,8c0-0.359-0.29-0.649-0.648-0.649H0.648C0.29,7.352,0,7.642,0,8c0,0.357,0.29,0.648,0.648,0.648
	h2.786C3.792,8.648,4.082,8.358,4.082,8z"/>
<path class="sun__beam" fill="#FABB3F" d="M4.313,5.23c0.126,0.126,0.293,0.189,0.458,0.189c0.166,0,0.332-0.064,0.458-0.189
	c0.253-0.253,0.253-0.664,0-0.917L3.26,2.343c-0.253-0.253-0.664-0.253-0.917,0c-0.253,0.253-0.253,0.663,0,0.916L4.313,5.23z"/>
<path class="sun__beam" fill="#FABB3F" d="M11.687,10.771c-0.253-0.253-0.664-0.253-0.917,0c-0.253,0.253-0.253,0.663,0,0.916l1.97,1.97
	c0.126,0.126,0.293,0.189,0.458,0.189c0.166,0,0.332-0.064,0.459-0.189c0.253-0.253,0.253-0.664,0-0.917L11.687,10.771z"/>
</svg>
